<?xml version="1.0" encoding="UTF-8"?><svg id="a" xmlns="http://www.w3.org/2000/svg" viewBox="0 0 360.03 255"><defs><style>.b{fill:#fff;}.c{fill:#6f58c9;}</style></defs><path class="b" d="M61.19,66.4v34.12l-21.47-1.56v29.54H2.82V49.62c0-15.27,4.17-27.13,12.5-35.58C23.65,5.58,34.94,0,50.03,0s25.71,5.19,32.68,12.85c6.97,7.67,10.45,19.49,10.45,35.49v80.16H56.26V50.8c0-4.85-.58-8.21-1.73-10.09-1.15-1.88-3.21-2.82-6.18-2.82-5.76,0-8.63,4.3-8.63,12.91v15.45l21.47,.15Z"/><path class="b" d="M241.6,68.96h34.12c0,18.61,0,24.82-9.31,40.33-8.08,13.47-27.21,19.71-45.39,19.71s-33.88-4.14-46.33-16.54c-12.45-12.39-13.76-28.25-13.76-46.61s1.43-33.54,14.12-46.14C187.75,7.11,203.43,0,222.03,0s29.05,6.96,41.29,19.32c8.48,8.54,12.41,21.72,12.41,37.23h-34.12c-4.42-13.57-12.03-18.61-24.82-18.61-6.2,0-10.06,2.14-15.18,7.59-5.12,5.45-7.68,12.39-7.68,20.81s2.51,14.83,7.54,20.13c5.03,5.3,11.39,7.95,19.09,7.95s10.21-2.19,14.84-6.85c4.64-4.67,5.35-9.89,6.2-18.61Z"/><path class="b" d="M325.03,52.89l1,13.46h-19l-.44,61.65-36.56-.1-.34-127.9h36.9l.5,53.11,17.94-.22ZM360.03,0V128h-36.9V0h36.9Z"/><path class="c" d="M49.45,183.18h35.17c15.41,18.4,15.52,44.73-1.95,60.72-8.88,8.3-23.42,11.84-36.13,9.28-15.51-3.13-22.37-5.87-34.12-18.76C.65,221.54,0,209.16,0,190.66s.44-34.56,12.41-46.89c11.97-12.33,25.49-15.63,43.43-15.63,9.31,0,38.19-.15,44.19-.15l-4,35.28c-14-.98-32.3-.75-37.09-.75-8.67,0-19.33,.82-24.82,6.25-5.48,5.44-6.2,13.21-6.2,21.88s1.81,16.46,6.9,21.64c5.09,5.19,11.97,7.78,20.63,7.78,5.51,0,8.27-1.62,8.27-4.85,0-2.44-1.82-3.66-5.45-3.66h-8.82v-28.39Z"/><path class="c" d="M216.78,161.45l.25,92.55h-37l-.15-125.91h47.35c14.42,0,25.6,3.58,33.54,10.72,8.85,8,13.27,18.15,13.27,30.45s-5.48,23.12-16.45,31.72l22.44,53.02h-38l-19.79-41.84-17.86-31.42,20.77-.48c7.76,0,11.63-3.33,11.63-10,0-5.88-4.49-8.82-13.45-8.82h-6.54Z"/><path class="b" d="M90.18,128V48.41c0-13.95,4.23-25.12,12.68-33.51C111.31,6.52,120.97,0,135.03,0s26.3,6.4,33.72,14.55c7.42,8.14,11.13,19.85,11.13,35.12V128h-36.9V49.67c0-7.49-2.7-11.23-8.09-11.23s-7.82,3.74-7.82,11.23V128h-36.9Z"/><path class="c" d="M306.92,128v81.16c0,7.76,2.6,11.63,7.81,11.63s8.09-3.88,8.09-11.63v-81.16h36.89v81.16c0,15.82-3.71,27.95-11.13,36.39-7.42,8.44-19.55,9.45-33.54,9.45s-23.89-1.14-32.34-9.83c-8.45-8.69-12.68-20.26-12.68-34.71v-82.46h36.89Z"/><path class="c" d="M127.36,128v81.16c0,7.76,2.6,11.63,7.81,11.63s8.09-3.88,8.09-11.63v-81.16h36.89v81.16c0,15.82-3.71,27.95-11.13,36.39-7.42,8.44-19.55,9.45-33.54,9.45s-23.89-1.14-32.34-9.83c-8.45-8.69-12.68-20.26-12.68-34.71v-82.46h36.89Z"/></svg>