<?xml version="1.0" encoding="utf-8"?>
<!-- Generator: Adobe Illustrator 26.1.0, SVG Export Plug-In . SVG Version: 6.00 Build 0)  -->
<svg version="1.1" id="Layer_1" xmlns="http://www.w3.org/2000/svg" xmlns:xlink="http://www.w3.org/1999/xlink" x="0px" y="0px"
	 viewBox="0 0 1164 960" style="enable-background:new 0 0 1164 960;" xml:space="preserve">
<style type="text/css">
	.st0{fill:#FFFFFF;stroke:#FFFFFF;stroke-width:6;stroke-miterlimit:10;}
	.st1{fill:#FFFFFF;}
</style>
<g>
	<g>
		<path class="st0" d="M272.61,591.99c-16.04,0.64-32.08,1.28-48.11,1.93c3.9,14.02,7.79,28.04,11.66,42.07
			c-7.09,0.22-10.63,0.32-17.7,0.54c-9.69-33.63-19.48-67.23-29.38-100.8c7.51-0.41,11.27-0.61,18.79-1.01
			c3.9,13.8,7.79,27.6,11.66,41.41c16.21-0.72,32.41-1.44,48.62-2.15c-3.48-13.98-6.98-27.95-10.49-41.92
			c7.48-0.4,11.22-0.59,18.71-0.99c8.22,34.3,16.33,68.63,24.34,102.99c-7.06,0.21-10.58,0.31-17.63,0.52
			C279.6,620.38,276.11,606.19,272.61,591.99z"/>
		<path class="st0" d="M339.59,522.17c32.21-5.67,54.43,14.93,62.34,44.79c0.05,0.18,0.07,0.27,0.12,0.46
			c8.32,28.32-0.62,54.24-31.92,58.51c-3.13,0.41-4.69,0.62-7.81,1.03c-31.28,4.36-52.88-16.82-61.58-45.31
			c-0.06-0.18-0.09-0.27-0.15-0.44c-9.05-28.08-1.71-54.2,31.03-57.85C334.81,522.88,336.4,522.65,339.59,522.17z M332.47,542.18
			c-8.29,1.21-13.62,4.8-15.98,10.76c-2.36,5.96-1.53,14.8,2.04,26.38c4.73,15.34,15.3,32.95,34.02,30.16
			c6.77-0.91,10.16-1.37,16.96-2.28c18.87-2.4,19.18-22.84,14.58-37.08c-2.84-8.79-5.96-18.64-13.41-25.01
			c-5.67-4.84-12.69-6.65-20.9-5.45C342.84,540.66,339.38,541.17,332.47,542.18z"/>
		<path class="st0" d="M462.3,610.08c-6.97,1.4-10.44,2.1-17.38,3.49c-8.61-28.83-17.48-57.58-26.61-86.25
			c-10.29,2.18-15.42,3.26-25.64,5.42c-2.44-7.27-3.67-10.91-6.14-18.17c22.96-4.9,45.91-9.81,68.87-14.72
			c2.21,7.37,3.31,11.07,5.49,18.45c-9.78,2.07-14.66,3.11-24.38,5.16C445.37,552.27,453.96,581.13,462.3,610.08z"/>
		<path class="st0" d="M553.26,493.8c-18.51,5-37.03,10-55.54,15c-1.62,0.44-3.03,1.18-4.22,2.21c-1.2,1.04-2.14,2.26-2.82,3.66
			c-0.69,1.4-1.11,2.92-1.27,4.56c-0.16,1.64,0.03,3.27,0.57,4.89c1.15,3.44,3.22,6.06,6.2,7.85c2.98,1.79,6.21,2.23,9.71,1.29
			c18.24-4.89,36.48-9.78,54.72-14.67c2.19,7.46,3.27,11.2,5.41,18.68c-18.12,4.83-36.25,9.66-54.38,14.49
			c-1.59,0.42-2.97,1.15-4.14,2.18c-1.17,1.03-2.1,2.24-2.77,3.64s-1.1,2.91-1.26,4.56c-0.17,1.64,0.01,3.28,0.53,4.91
			c1.24,3.87,3.32,6.74,6.24,8.61c2.92,1.88,6.08,2.37,9.5,1.46c17.85-4.71,35.69-9.43,53.54-14.15c2.07,7.44,3.1,11.16,5.14,18.62
			c-16.81,4.42-33.62,8.83-50.43,13.25c-5.82,1.53-11,1.92-15.56,1.19c-4.57-0.73-8.55-2.25-11.95-4.55
			c-3.41-2.3-6.27-5.16-8.59-8.57c-2.32-3.41-4.12-7.04-5.39-10.89c-1.4-4.26-1.93-8.55-1.56-12.89c0.37-4.34,2.13-8.25,5.28-11.74
			c-4.76-1.37-8.65-3.81-11.67-7.29c-3.02-3.49-5.18-7.09-6.47-10.82c-1.53-4.43-2.3-8.71-2.31-12.84
			c-0.01-4.13,0.85-7.91,2.58-11.35c1.73-3.44,4.42-6.48,8.07-9.13c3.65-2.64,8.33-4.74,14.06-6.3
			c17.71-4.81,35.42-9.62,53.13-14.43C549.9,482.65,551.02,486.36,553.26,493.8z"/>
		<path class="st0" d="M639.03,562.24c-7.52,2.45-14.39,3.49-20.67,3.16c-6.28-0.33-11.93-1.88-16.99-4.64
			c-5.06-2.76-9.45-6.64-13.18-11.63c-3.72-5-6.76-10.95-9.1-17.86c-6.76-19.85-13.7-39.63-20.8-59.37
			c7.42-2.46,11.14-3.69,18.61-6.16c6.95,19.86,13.73,39.77,20.35,59.74c2.82,8.57,7.34,14.47,13.58,17.69
			c6.23,3.22,13.54,3.47,22.02,0.7c10.54-3.44,21.07-6.87,31.61-10.31c2.15,7.46,3.22,11.2,5.32,18.68
			C659.53,555.57,649.28,558.9,639.03,562.24z"/>
		<path class="st0" d="M729.76,529.39c-31.32,13.5-54.43-5.01-65.08-34.17c-0.07-0.18-0.1-0.27-0.16-0.46
			c-11.94-30.98-1.9-58.89,29.75-70.97c13.22-5.19,26.44-10.37,39.67-15.55c2.54,7.4,3.8,11.11,6.28,18.53
			c-14.74,5.76-29.48,11.54-44.22,17.32c-8.53,3.35-13.93,8.59-16.08,15.67c-2.87,9.45,0.48,19.4,3.05,28.45
			c4.65,15.87,17.96,32.34,36.19,24.5c14.33-5.6,28.67-11.19,43.01-16.78c2.27,7.44,3.39,11.17,5.61,18.64
			C755.1,519.51,742.43,524.45,729.76,529.39z"/>
		<path class="st0" d="M777.72,408.31c-0.37-5.94,0.97-11.36,4.06-16.29c3.09-4.92,7.48-8.82,13.15-11.67
			c3.89-1.96,7.81-3.21,11.76-3.76c3.95-0.55,7.67-0.38,11.15,0.51c3.48,0.89,6.63,2.52,9.44,4.88c2.81,2.37,5.01,5.43,6.59,9.19
			c7.18,17.19,14.18,34.45,21.02,51.78c2.35,6,6.13,7.69,11.43,5.03c1.76-0.89,2.92-2.09,3.45-3.62c0.53-1.52,0.76-3.52,0.69-6
			c-1.04-24.97-2.21-49.93-3.51-74.89c-0.26-5.98,1.31-11.49,4.77-16.56c3.45-5.07,8.07-9.05,13.86-11.92
			c4.04-2.01,8.09-3.3,12.14-3.88c4.05-0.57,7.84-0.42,11.35,0.47c3.52,0.89,6.67,2.52,9.45,4.91c2.78,2.39,4.91,5.49,6.38,9.3
			c10.07,26.22,19.69,52.58,28.89,79.12c-8.22,4.08-12.31,6.11-20.46,10.17c-9.15-25.86-18.71-51.54-28.69-77.09
			c-2.36-6-6.4-7.58-12.05-4.77c-1.85,0.92-3,2.18-3.46,3.78c-0.46,1.61-0.65,3.64-0.57,6.11c0.92,25.06,1.72,50.13,2.4,75.2
			c0.44,5.87-1.09,11.39-4.55,16.53c-3.46,5.14-7.93,9.09-13.4,11.84c-3.92,1.97-7.75,3.18-11.49,3.63
			c-3.75,0.45-7.27,0.19-10.57-0.78c-3.31-0.97-6.26-2.68-8.88-5.13c-2.62-2.45-4.68-5.57-6.18-9.37
			c-6.97-17.39-14.11-34.7-21.43-51.95c-2.53-5.92-6.55-7.5-11.98-4.76c-1.78,0.9-2.83,2.12-3.17,3.67
			c-0.34,1.55-0.48,3.57-0.41,6.06c1.67,30.79,3.16,61.58,4.47,92.38c-8.16,4.14-12.21,6.21-20.29,10.33
			C781.51,476.6,779.72,442.45,777.72,408.31z"/>
		<path class="st0" d="M1052.89,317.67c4.82,7.11,6.13,19.01,2.77,26.88c-4.23,9.9-12.26,18.22-21.22,24.27
			c-18.14,12.55-36.24,25.15-54.3,37.81c-3.8-6.56-5.72-9.84-9.6-16.37c19.3-13.52,38.65-26.97,58.03-40.36
			c3.34-2.3,5.46-5.33,6.36-9.08c0.9-3.75,0.42-7.22-1.45-10.4c-1.77-3-4.42-4.85-7.95-5.56c-3.53-0.71-6.98,0.1-10.33,2.41
			c-10.08,6.95-20.15,13.92-30.2,20.91c-6.18,4.29-11.87,7.1-17.09,8.44c-5.23,1.34-9.94,1.6-14.15,0.81
			c-4.21-0.79-7.9-2.38-11.06-4.74c-3.17-2.36-5.75-5.11-7.75-8.24c-2.4-3.75-4.04-7.68-4.92-11.79c-0.88-4.11-0.79-8.35,0.29-12.73
			c1.08-4.38,3.25-8.75,6.54-13.11c3.29-4.36,7.93-8.63,13.95-12.81c18.08-12.53,36.19-25.01,54.34-37.44
			c4.18,6.48,6.25,9.73,10.35,16.25c-19.09,13.08-38.14,26.22-57.15,39.41c-1.66,1.15-3.02,2.52-4.09,4.1
			c-1.07,1.59-1.83,3.25-2.28,4.98c-0.45,1.73-0.59,3.48-0.43,5.24c0.16,1.76,0.7,3.36,1.6,4.79c1.93,3.04,4.73,4.8,8.41,5.26
			c3.68,0.46,7.22-0.48,10.62-2.85c9.91-6.89,19.83-13.76,29.76-20.61c8.99-5.24,18.28-10.82,29.14-10.32
			c8.86,0.4,16.09,5.07,21.42,14.18C1052.65,317.26,1052.73,317.4,1052.89,317.67z"/>
	</g>
</g>
<g>
	<path class="st1" d="M955.93,236.28C885.29,121.69,758.64,45.3,614.15,45.3c-221.58,0-401.21,179.63-401.21,401.21
		c0,8.06,0.24,16.05,0.71,23.99c0.17,2.9,2.48,5.23,5.39,5.36c124.18,5.54,279.39-21.76,429.8-75.93
		c114.21-41.13,220.66-95.97,305.63-156.5C956.75,241.8,957.4,238.67,955.93,236.28z M381.25,357.54l-29.29-1.75
		c-2.75-0.16-5.4,1.03-7.09,3.21l-18.04,23.14c-4.26,5.47-12.94,3.67-14.69-3.04l-7.39-28.4c-0.69-2.66-2.65-4.82-5.24-5.76
		l-27.58-10.01c-6.52-2.37-7.49-11.18-1.65-14.91l24.72-15.8c2.32-1.48,3.76-4.01,3.85-6.76l1-29.32
		c0.24-6.93,8.31-10.58,13.67-6.18l22.67,18.63c2.13,1.75,4.98,2.34,7.62,1.58l28.2-8.11c6.66-1.92,12.63,4.64,10.1,11.09
		l-10.71,27.31c-1.01,2.56-0.69,5.46,0.86,7.74l16.43,24.31C392.56,350.25,388.17,357.95,381.25,357.54z"/>
</g>
<g>
	<path class="st1" d="M1012.86,445.1c-87.61,55.3-188.31,104.11-296.25,142.98c-144.34,51.99-290.02,82.04-421.04,87.58
		c-4.55,0.19-6.99,5.39-4.29,9.05c73.06,98.88,190.47,163.01,322.87,163.01c221.58,0,401.21-179.63,401.21-401.21
		c0-0.01,0-0.02,0-0.03C1015.36,445.2,1013.95,444.42,1012.86,445.1z M876.68,668.86l-15.98-1.76c-1.5-0.16-2.91,0.47-3.78,1.71
		l-9.24,13.15c-2.18,3.11-6.95,1.84-8.07-2.15l-4.72-16.88c-0.44-1.58-1.56-2.9-2.99-3.51l-15.25-6.57c-3.6-1.55-4.35-6.75-1.27-8.8
		l13.06-8.67c1.23-0.81,1.95-2.26,1.93-3.88l-0.19-17.21c-0.04-4.07,4.26-6.01,7.28-3.29l12.8,11.51c1.2,1.08,2.77,1.5,4.19,1.12
		l15.14-4.07c3.58-0.96,6.99,3.04,5.77,6.77l-5.15,15.79c-0.48,1.48-0.24,3.19,0.66,4.57l9.54,14.7
		C882.65,664.86,880.46,669.28,876.68,668.86z"/>
</g>
</svg>
